<?xml version="1.0" standalone="no"?>
<!DOCTYPE svg PUBLIC "-//W3C//DTD SVG 20010904//EN"
 "http://www.w3.org/TR/2001/REC-SVG-20010904/DTD/svg10.dtd">
<svg version="1.0" xmlns="http://www.w3.org/2000/svg"
 width="131.000000pt" height="131.000000pt" viewBox="0 0 131.000000 131.000000"
 preserveAspectRatio="xMidYMid meet">
<metadata>
Created by potrace 1.11, written by Peter Selinger 2001-2013
</metadata>
<g transform="translate(0.000000,131.000000) scale(0.100000,-0.100000)"
fill="#000000" stroke="none">
<path d="M640 1018 c-101 -17 -202 -92 -279 -207 -21 -31 -73 -117 -115 -191
-88 -152 -139 -224 -204 -281 -34 -30 -40 -39 -26 -40 10 0 30 -3 44 -5 36 -7
105 13 149 41 44 30 103 105 137 175 13 28 30 53 38 56 7 3 43 4 80 2 l67 -3
-41 -64 c-23 -35 -71 -94 -108 -132 l-68 -69 32 -6 c45 -8 107 2 153 25 69 36
120 97 200 243 l42 78 70 0 c38 0 69 -4 69 -8 0 -4 -13 -29 -30 -55 -16 -26
-30 -50 -30 -52 0 -14 -69 -102 -125 -157 l-66 -66 28 -6 c45 -10 108 1 162
28 79 41 116 92 268 376 80 148 145 252 183 290 l36 36 -43 3 c-98 5 -184 -65
-283 -228 l-55 -90 -73 -1 -72 0 45 83 c57 105 99 159 153 193 24 15 45 31 48
35 6 10 -328 7 -386 -3z m46 -185 c-24 -38 -59 -95 -78 -128 l-34 -60 -72 -3
c-40 -2 -72 0 -72 3 0 14 89 143 121 174 40 39 109 71 172 80 4 1 -13 -29 -37
-66z"/>
</g>
</svg>
